<?xml version="1.0" standalone="no"?>
<!DOCTYPE svg PUBLIC "-//W3C//DTD SVG 1.1//EN" "http://www.w3.org/Graphics/SVG/1.1/DTD/svg11.dtd">
<svg xmlns="http://www.w3.org/2000/svg">
<metadata>Copyright (C) 2023 by original authors @ fontello.com</metadata>
<defs>
<font id="edition-icons-a7-fontello" horiz-adv-x="1000" >
<font-face font-family="edition-icons-a7-fontello" font-weight="400" font-stretch="normal" units-per-em="1000" ascent="850" descent="-150" />
<missing-glyph horiz-adv-x="1000" />
<glyph glyph-name="1-bold" unicode="&#xe800;" d="M686 373a200 200 0 0 0 64-68 172 172 0 0 0 19-88 164 164 0 0 0-61-113 229 229 0 0 0-139-46h-319a22 22 0 0 0-15 6 20 20 0 0 0-6 15v63a20 20 0 0 0 6 15 22 22 0 0 0 15 6h42v375h-42a22 22 0 0 0-15 5 20 20 0 0 0-5 15v63a20 20 0 0 0 6 15 22 22 0 0 0 14 6h305a198 198 0 0 0 140-55 155 155 0 0 0 36-129 167 167 0 0 0-45-85z m-248 165v-125h93a60 60 0 0 1 44 18 63 63 0 0 1 0 88 60 60 0 0 1-44 19z m93-375a69 69 0 0 1 52 20 73 73 0 0 1 0 103 69 69 0 0 1-52 22h-93v-145z" horiz-adv-x="1000" />

<glyph glyph-name="2-italic" unicode="&#xe801;" d="M703 636a20 20 0 0 1-15 6h-250a20 20 0 0 1-21-21v-42a20 20 0 0 1 21-21h62l-105-416h-84a20 20 0 0 1-21-21v-42a20 20 0 0 1 21-21h250a20 20 0 0 1 21 21v42a20 20 0 0 1-21 21h-61l104 416h84a20 20 0 0 1 20 21v42a20 20 0 0 1-5 15z" horiz-adv-x="1000" />

<glyph glyph-name="3-underscore" unicode="&#xe802;" d="M298 189a20 20 0 0 0-6 15v42a20 20 0 0 0 21 21h41v333h-41a20 20 0 0 0-21 21v42a20 20 0 0 0 21 20h187a20 20 0 0 0 21-20v-42a20 20 0 0 0-21-21h-42v-333h167v29a22 22 0 0 0 6 15 20 20 0 0 0 15 6h42a20 20 0 0 0 15-6 22 22 0 0 0 5-15v-92a20 20 0 0 0-20-21h-375a20 20 0 0 0-15 6z m488-95a20 20 0 0 1-15 6h-542a20 20 0 0 1-21-21v-41a20 20 0 0 1 21-21h542a20 20 0 0 1 21 21v41a20 20 0 0 1-6 15z" horiz-adv-x="1000" />

<glyph glyph-name="4-striketrough" unicode="&#xe803;" d="M708 235a101 101 0 0 0 0-15 156 156 0 0 0-47-114 155 155 0 0 0-114-48h-89a146 146 0 0 0-57 13 191 191 0 0 0-54 34 159 159 0 0 0-37 46l0 0a20 20 0 0 0 0 9 19 19 0 0 0 12 18l53 30a29 29 0 0 0 9 0 19 19 0 0 0 19-10 48 48 0 0 1 10-15 96 96 0 0 1 14-11 65 65 0 0 1 16-8 63 63 0 0 1 18-3h86a54 54 0 0 1 41 17 55 55 0 0 1 17 42 54 54 0 0 1-7 26 51 51 0 0 1-19 21h123a120 120 0 0 0 6-32z m121 151a20 20 0 0 1-16 6h-263l-114 35a58 58 0 0 0-28 21 53 53 0 0 0-12 32 54 54 0 0 0 17 42 55 55 0 0 0 42 17h85a63 63 0 0 0 34-11 64 64 0 0 0 25-26 20 20 0 0 1 18-10 21 21 0 0 1 9 0l56 28a19 19 0 0 1 12 18 30 30 0 0 1 0 10l0 0a164 164 0 0 1-63 65 162 162 0 0 1-89 29h-89a159 159 0 0 1-83-22 157 157 0 0 1-58-58 159 159 0 0 1-22-84 96 96 0 0 1 0-15 141 141 0 0 1 30-71h-132a20 20 0 0 1-21-21v-42a20 20 0 0 1 21-21h625a20 20 0 0 1 20 21v42a20 20 0 0 1-5 15z" horiz-adv-x="1000" />

<glyph glyph-name="5-quote" unicode="&#xe804;" d="M833 225a146 146 0 0 0-291 0v188a201 201 0 0 0 61 145 201 201 0 0 0 147 63 63 63 0 0 0 0-125 83 83 0 0 1-83-83v-44a167 167 0 0 0 21 2 146 146 0 0 0 145-146z m-520 146a167 167 0 0 1-21-2v44a83 83 0 0 0 83 83 63 63 0 0 1 0 125 201 201 0 0 1-147-63 201 201 0 0 1-61-145v-188a146 146 0 1 1 146 146z" horiz-adv-x="1000" />

<glyph glyph-name="6-spoiler" unicode="&#xe805;" d="M534 166l68-53a428 428 0 0 0-102-13 393 393 0 0 0-217 63 436 436 0 0 0-154 167 53 53 0 0 0 0 39 504 504 0 0 0 48 72l137-105a188 188 0 0 1 29-88 186 186 0 0 1 157-85 155 155 0 0 1 34 3z m383-96a25 25 0 0 0-4-13l-26-32a20 20 0 0 0-17-8 21 21 0 0 0-12 3l-767 593a21 21 0 0 0-8 17 25 25 0 0 0 4 12l26 32a20 20 0 0 0 17 9 21 21 0 0 0 12-3l167-130a262 262 0 0 0 58 26 506 506 0 0 0 70 17 341 341 0 0 0 63 7 397 397 0 0 0 218-63 439 439 0 0 0 153-167 53 53 0 0 0 0-39 538 538 0 0 0-48-71 486 486 0 0 0-59-62l145-110a21 21 0 0 0 8-18z m-229 280a186 186 0 0 1-188 188 189 189 0 0 1-62-13 172 172 0 0 1-56-30l95-75a35 35 0 0 1 2 13 58 58 0 0 1-11 37 106 106 0 0 0 32 5 125 125 0 0 0 125-125v0a117 117 0 0 0-7-39l51-39a180 180 0 0 1 19 78z" horiz-adv-x="1000" />

<glyph glyph-name="7-aside" unicode="&#xe806;" d="M703 529a18 18 0 0 0 5-12v-89a17 17 0 0 0-18-18h-36a17 17 0 0 0-13 5 18 18 0 0 0-5 13v34h-94v-272h41a17 17 0 0 0 18-18v-37a18 18 0 0 0-5-12 17 17 0 0 0-13-5h-162a17 17 0 0 0-13 5 18 18 0 0 0-5 12v37a17 17 0 0 0 18 18h42v272h-99v-35a18 18 0 0 0-5-13 17 17 0 0 0-13-5h-36a17 17 0 0 0-18 18v90a17 17 0 0 0 18 18h380a18 18 0 0 0 13-6z m-453-444a426 426 0 0 0-39 125 485 485 0 0 0-3 67v146a485 485 0 0 0 5 66 426 426 0 0 0 39 125l7 14a23 23 0 0 1-10 31l-21 14-20 15h0l0 0a10 10 0 0 1-5 0 27 27 0 0 1-10 0 29 29 0 0 1-15-14l-10-18a536 536 0 0 1-53-153 523 523 0 0 1-5-80v-146a523 523 0 0 1 5-80 536 536 0 0 1 48-154l9-18a26 26 0 0 1 35-12l20 14 24 17a13 13 0 0 1 4 3 27 27 0 0 1 4 8 20 20 0 0 1 0 16z m634 417a536 536 0 0 1-47 154l-9 18a26 26 0 0 1-36 13l-20-14-24-17a13 13 0 0 1-4-3 27 27 0 0 1-4-8 20 20 0 0 1 0-16l7-14a426 426 0 0 0 39-125 485 485 0 0 0 6-67v-146a485 485 0 0 0-5-66 426 426 0 0 0-39-125l-7-14a23 23 0 0 1 10-31l21-13 21-15h0l2 0a10 10 0 0 1 5 0 27 27 0 0 1 10 0 29 29 0 0 1 15 13l10 19a536 536 0 0 1 47 153 523 523 0 0 1 6 80v145a523 523 0 0 1-3 80z" horiz-adv-x="1000" />

<glyph glyph-name="8-roleplay" unicode="&#xe807;" d="M438 146v79h333v50a31 31 0 0 1-9 22l-54 53 54 53a31 31 0 0 1 9 22v42a20 20 0 0 1-6 15l-36 35 35 35a21 21 0 0 1 6 16 125 125 0 0 1-124 115h-396a105 105 0 0 0 21-62v-154a31 31 0 0 1 9-22l53-53-53-54a31 31 0 0 1-9-22v-174a83 83 0 0 1 97-84 86 86 0 0 1 70 88z m-84 440a10 10 0 0 0 3 7 10 10 0 0 0 8 3h270a10 10 0 0 0 8-3 10 10 0 0 0 3-7v-21a10 10 0 0 0-3-7 12 12 0 0 0-8-3h-270a12 12 0 0 0-8 3 10 10 0 0 0-3 8z m0-125a10 10 0 0 0 3 7 10 10 0 0 0 8 3h312a10 10 0 0 0 8-3 10 10 0 0 0 3-7v-21a10 10 0 0 0-3-7 12 12 0 0 0-8-3h-312a12 12 0 0 0-8 3 10 10 0 0 0-3 8z m3-153a10 10 0 0 0-3 8v21a10 10 0 0 0 3 7 10 10 0 0 0 8 3h145a10 10 0 0 0 8-3 10 10 0 0 0 3-7v-21a10 10 0 0 0-3-8 12 12 0 0 0-8-3h-145a12 12 0 0 0-8 3z m-128 313v-104h-104a21 21 0 0 0-21 21v83a63 63 0 0 0 125 0z m667-458a146 146 0 0 0-146-146h-396a125 125 0 0 1 125 125v41h91a31 31 0 0 0 23-9l53-53 53 53a31 31 0 0 0 22 9h154a21 21 0 0 0 21-20z" horiz-adv-x="1000" />

<glyph glyph-name="9-link" unicode="&#xe808;" d="M833 485a190 190 0 0 0-57-139l-49-49a18 18 0 0 0-22-4 21 21 0 0 0-14 18 233 233 0 0 1-13 69 19 19 0 0 0 6 21l16 18a90 90 0 0 1 28 66 85 85 0 0 1-26 65 87 87 0 0 1-67 29 90 90 0 0 1-66-27l-87-87a95 95 0 0 1 0-133 167 167 0 0 1 13-12 17 17 0 0 0 9-15 49 49 0 0 0-14-40l-29-27a17 17 0 0 0-26-3c-10 8-19 15-27 23a193 193 0 0 0-58 140 189 189 0 0 0 58 140l88 88a189 189 0 0 0 139 57 191 191 0 0 0 140-58 191 191 0 0 0 58-140z m-268-20a17 17 0 0 1-26-3l-29-27a49 49 0 0 1-14-40 17 17 0 0 1 9-15l13-12a95 95 0 0 0 0-133l-87-87a89 89 0 0 0-66-27 88 88 0 0 0-67 29 83 83 0 0 0-26 65 90 90 0 0 0 28 66l16 18a19 19 0 0 1 6 21 231 231 0 0 0-13 69 20 20 0 0 1-14 18 18 18 0 0 1-22-4l-49-49a189 189 0 0 1-57-139 191 191 0 0 1 58-140 191 191 0 0 1 140-58 190 190 0 0 1 139 57l89 89a189 189 0 0 1 57 139 193 193 0 0 1-57 141c-10 7-18 15-28 22z" horiz-adv-x="1000" />

<glyph glyph-name="10-user" unicode="&#xe809;" d="M728 578a311 311 0 0 1-228 95 311 311 0 0 1-228-95 309 309 0 0 1-95-228 309 309 0 0 1 95-228 309 309 0 0 1 228-95 309 309 0 0 1 228 95 311 311 0 0 1 95 228 311 311 0 0 1-95 228z m-309-64a114 114 0 0 0 162 0 114 114 0 0 0 0-161 114 114 0 0 0-162 0 114 114 0 0 0 0 161z m81-414a238 238 0 0 0-190 88 142 142 0 0 0 52 57 135 135 0 0 0 76 22l9 0a160 160 0 0 1 106 0l10 0a135 135 0 0 0 75-22 142 142 0 0 0 52-57 237 237 0 0 0-190-88z" horiz-adv-x="1000" />

<glyph glyph-name="11-question" unicode="&#xe80a;" d="M728 578a311 311 0 0 1-228 95 311 311 0 0 1-228-95 309 309 0 0 1-95-228 309 309 0 0 1 95-228 311 311 0 0 1 228-95 311 311 0 0 1 228 95 311 311 0 0 1 95 228 311 311 0 0 1-95 228z m-186-436a60 60 0 1 0 17 41 58 58 0 0 0-17-41z m101 233a108 108 0 0 0-38-35 311 311 0 0 1-37-22c-11-8-17-15-17-23v0a13 13 0 0 0-15-15h-72a14 14 0 0 0-16 15v5a76 76 0 0 0 13 45 110 110 0 0 0 24 27c8 5 19 12 35 21a250 250 0 0 1 31 21 29 29 0 0 1 10 23 37 37 0 0 1-19 28 78 78 0 0 1-42 13 69 69 0 0 1-30-7 87 87 0 0 1-21-15c-6-6-14-14-23-25a13 13 0 0 0-21-3l-44 34a14 14 0 0 0-4 21 175 175 0 0 0 152 83 160 160 0 0 0 104-39 119 119 0 0 0 47-94 103 103 0 0 0-17-58z" horiz-adv-x="1000" />

<glyph glyph-name="12-flag" unicode="&#xe80b;" d="M599 555a202 202 0 0 1 105 41 21 21 0 0 0 27-3 44 44 0 0 0 14-35v-191a45 45 0 0 0-13-34 156 156 0 0 0-110-53 186 186 0 0 0-79 23 187 187 0 0 1-70 22 225 225 0 0 1-103-30v-247a31 31 0 0 0-31-31h-21a31 31 0 0 0-31 31v502a70 70 0 0 0-32 60 70 70 0 0 0 23 53 69 69 0 0 0 53 20 74 74 0 0 0 49-20 68 68 0 0 0 21-48v-5a73 73 0 0 0-5-26c29 11 32 16 54 16a186 186 0 0 0 78-23 185 185 0 0 1 71-22z" horiz-adv-x="1000" />

<glyph glyph-name="13-flag-rod" unicode="&#xe80c;" d="M396 553h0a75 75 0 0 1 5 32 68 68 0 0 1-21 47 74 74 0 0 1-49 21 69 69 0 0 1-53-21 73 73 0 0 1 9-112v-503a29 29 0 0 1 9-22 30 30 0 0 1 22-10h21a31 31 0 0 1 31 32v502a69 69 0 0 1 26 34z" horiz-adv-x="1000" />

<glyph glyph-name="14-flag-header" unicode="&#xe80d;" d="M731 562a21 21 0 0 1-27 3 202 202 0 0 0-105-42 185 185 0 0 0-71 23 186 186 0 0 1-78 23c-22 0-25-6-54-16a69 69 0 0 0-26-34v-255a225 225 0 0 0 103 30 187 187 0 0 0 70-23 186 186 0 0 1 79-23 156 156 0 0 1 110 54 45 45 0 0 1 13 34v191a44 44 0 0 1-14 35z" horiz-adv-x="1000" />

<glyph glyph-name="15-downarrow" unicode="&#xe80e;" d="M691 444a23 23 0 0 1-24 16h-334a26 26 0 0 1-18-44l167-167a25 25 0 0 1 36 0l167 167a23 23 0 0 1 6 28z" horiz-adv-x="1000" />

<glyph glyph-name="16-info" unicode="&#xe80f;" d="M596 100c0 0-25-8-42-8-12 0-16 4-16 4-9 4-21 12 4 58l41 84c25 50 30 95 9 133-17 29-42 50-79 58-13 4-30 4-42 4-75 0-129-45-129-45-9-9-9-17-4-25 4-13 12-17 25-13 0 0 25 8 41 8 13 0 17-4 17-4 8-4 21-12-4-58l-42-83c-25-50-29-96-8-134 16-29 41-50 79-58 12-4 25-4 42-4 75 0 129 46 129 46 8 8 8 16 4 25-4 12-13 12-25 12z m-33 583c58 0 104-45 104-104s-46-104-104-104-105 46-105 104 46 104 105 104z" horiz-adv-x="1000" />

<glyph glyph-name="17-tick" unicode="&#xe810;" d="M758 496l-208-375c-12-21-37-38-62-42l-13 0c-21 0-42 9-58 25l-167 167c-33 33-33 83 0 117 33 33 83 33 117 0l87-88 154 279c21 42 75 54 113 34 46-25 62-75 37-117z" horiz-adv-x="1000" />

<glyph glyph-name="18-cross" unicode="&#xe811;" d="M725 458l-108-108 108-108c33-34 33-84 0-117-17-17-37-25-58-25s-42 8-59 25l-108 108-108-108c-17-17-38-25-59-25-20 0-41 8-58 25-33 33-33 83 0 117l108 108-108 108c-33 34-33 84 0 117 33 33 83 33 117 0l108-108 108 108c34 33 84 33 117 0 33-33 33-83 0-117z" horiz-adv-x="1000" />

<glyph glyph-name="19-player" unicode="&#xe812;" d="M723 219a380 380 0 0 0-133 204 154 154 0 1 1-180 0 380 380 0 0 0-133-204 29 29 0 0 1-14-25v-125a29 29 0 0 1 17-27 612 612 0 0 1 220-44 612 612 0 0 1 220 44 29 29 0 0 1 18 27v125a30 30 0 0 1-15 25z m-223 423a96 96 0 1 0-96-96 96 96 0 0 0 96 96z m-37-245a137 137 0 0 1 74 0 471 471 0 0 1 125-204 557 557 0 0 0-161-26 557 557 0 0 0-160 26 471 471 0 0 1 122 206z m37-341a565 565 0 0 0-179 33v76a603 603 0 0 1 179-30 603 603 0 0 1 179 30v-76a565 565 0 0 0-179-33z" horiz-adv-x="1000" />

<glyph glyph-name="20-player-fill" unicode="&#xe813;" d="M555 436a125 125 0 1 1-110 0c-49-180-153-242-153-242v-125a593 593 0 0 1 208-42 593 593 0 0 1 208 42v125s-104 62-153 242z" horiz-adv-x="1000" />

<glyph glyph-name="21-player-striked" unicode="&#xe814;" d="M795 484a31 31 0 0 1-45 5l-542-416a31 31 0 1 1 42-50l542 417a31 31 0 0 1 3 44z m-354-141a546 546 0 0 1 22 56 150 150 0 0 1 37-7l9 0 137 105a154 154 0 1 1-236-77 380 380 0 0 0-133-204 29 29 0 0 1-11-11z m-37 205a96 96 0 1 0 96-96 96 96 0 0 0-96 96z m319-329a30 30 0 0 0 15-25v-125a29 29 0 0 0-18-27 612 612 0 0 0-220-44 571 571 0 0 0-141 19l61 46a488 488 0 0 1 80-7 565 565 0 0 1 179 33v76a616 616 0 0 0-166-29l49 38a612 612 0 0 1 97 21c-9 8-19 18-30 30l47 36a236 236 0 0 1 47-42z" horiz-adv-x="1000" />

<glyph glyph-name="22-player-striked-2" unicode="&#xe815;" d="M723 219a380 380 0 0 0-133 204 154 154 0 1 1-180 0 380 380 0 0 0-133-204 29 29 0 0 1-14-25v-125a29 29 0 0 1 17-27 615 615 0 0 1 220-44 615 615 0 0 1 220 44 29 29 0 0 1 18 27v125a30 30 0 0 1-15 25z m-223 233a94 94 0 0 0-55 17l145 111a107 107 0 0 0 6-32 96 96 0 0 0-96-96z m0 190a94 94 0 0 0 55-17l-145-108a107 107 0 0 0-6 32 96 96 0 0 0 96 93z m-37-245a137 137 0 0 1 74 0 471 471 0 0 1 125-204 557 557 0 0 0-161-26 557 557 0 0 0-160 26 471 471 0 0 1 122 206z m37-341a565 565 0 0 0-179 33v76a603 603 0 0 1 179-30 603 603 0 0 1 179 30v-76a565 565 0 0 0-179-33z" horiz-adv-x="1000" />

<glyph glyph-name="23-player-highlight" unicode="&#xe816;" d="M590 423a154 154 0 1 1-180 0 380 380 0 0 0-133-204 29 29 0 0 1-14-25v-125a29 29 0 0 1 17-27 615 615 0 0 1 220-44 615 615 0 0 1 220 44 29 29 0 0 1 18 27v125a30 30 0 0 1-15 25 380 380 0 0 0-133 204z m-90 219a96 96 0 1 0-96-96 96 96 0 0 0 96 96z m-37-245a137 137 0 0 1 74 0 471 471 0 0 1 125-204 557 557 0 0 0-161-26 557 557 0 0 0-160 26 471 471 0 0 1 122 206z m37-341a565 565 0 0 0-179 33v76a603 603 0 0 1 179-30 603 603 0 0 1 179 30v-76a565 565 0 0 0-179-33z m343 492a29 29 0 0 0-30-29h-83a29 29 0 1 0 0 58h83a29 29 0 0 0 30-29z m-167 100a30 30 0 0 0 11 42l72 42a30 30 0 0 0 41-11 29 29 0 0 0-10-42l-72-41a30 30 0 0 0-15-4 29 29 0 0 0-29 14z m123-271a30 30 0 0 0-26-15 30 30 0 0 0-14 4l-72 42a29 29 0 1 0 29 50l72-41a29 29 0 0 0 9-40z m-529 140h-83a29 29 0 0 0 0 58h83a29 29 0 1 0 0-58z m-67 202a30 30 0 0 0 42 11l72-42a30 30 0 0 0 11-41 29 29 0 0 0-25-15 30 30 0 0 0-15 4l-72 42a29 29 0 0 0-13 41z m112-311l-72-42a30 30 0 0 0-14-4 30 30 0 0 0-26 15 29 29 0 0 0 11 41l72 42a30 30 0 0 0 42-11 30 30 0 0 0-13-41z" horiz-adv-x="1000" />

<glyph glyph-name="24-player-friend" unicode="&#xe817;" d="M640 219a380 380 0 0 0-134 204 154 154 0 1 1-179 0 380 380 0 0 0-134-204 29 29 0 0 1-14-25v-125a29 29 0 0 1 18-27 615 615 0 0 1 220-44 615 615 0 0 1 220 44 29 29 0 0 1 17 27v125a30 30 0 0 1-14 25z m-223 423a96 96 0 1 0-96-96 96 96 0 0 0 96 96z m-37-245a137 137 0 0 1 73 0 471 471 0 0 1 125-204 557 557 0 0 0-160-26 557 557 0 0 0-160 26 471 471 0 0 1 122 206z m37-341a565 565 0 0 0-179 33v76a603 603 0 0 1 179-30 603 603 0 0 1 179 30v-76a565 565 0 0 0-179-33z m390 163a375 375 0 0 0-134 204 154 154 0 0 1-87 279 229 229 0 0 0 44-71 96 96 0 0 0 49-83 94 94 0 0 0-49-83 216 216 0 0 0-19-38 463 463 0 0 1 152-250v-90c-9-3-20-7-34-11v-9a105 105 0 0 0-16-55 619 619 0 0 1 90 28 29 29 0 0 1 18 27v125a30 30 0 0 1-14 27z" horiz-adv-x="1000" />
</font>
</defs>
</svg>
